<svg xmlns="http://www.w3.org/2000/svg" xmlns:xlink="http://www.w3.org/1999/xlink" width="500" zoomAndPan="magnify" viewBox="0 0 375 374.999991" height="500" preserveAspectRatio="xMidYMid meet" version="1.0"><defs><g/><clipPath id="26c091dc29"><path d="M 75.050781 152 L 88 152 L 88 164 L 75.050781 164 Z M 75.050781 152 " clip-rule="nonzero"/></clipPath><clipPath id="e24e767641"><path d="M 82 130.164062 L 109 130.164062 L 109 157 L 82 157 Z M 82 130.164062 " clip-rule="nonzero"/></clipPath></defs><rect x="-37.5" width="450" fill="#ffffff" y="-37.499999" height="449.999989" fill-opacity="1"/><rect x="-37.5" width="450" fill="#ffffff" y="-37.499999" height="449.999989" fill-opacity="1"/><rect x="-37.5" width="450" fill="#ffffff" y="-37.499999" height="449.999989" fill-opacity="1"/><g clip-path="url(#26c091dc29)"><path fill="#c04e5f" d="M 85.792969 158.941406 C 85.734375 159 85.667969 159.046875 85.597656 159.082031 L 76.261719 163.90625 C 75.957031 164.0625 75.585938 164.007812 75.339844 163.765625 C 75.1875 163.613281 75.109375 163.414062 75.109375 163.210938 C 75.109375 163.089844 75.136719 162.964844 75.199219 162.847656 L 80.066406 153.601562 C 80.101562 153.53125 80.152344 153.464844 80.207031 153.410156 L 81.511719 152.113281 L 87.097656 157.648438 Z M 85.792969 158.941406 " fill-opacity="1" fill-rule="nonzero"/></g><g clip-path="url(#e24e767641)"><path fill="#c04e5f" d="M 107.695312 131.703125 C 109.191406 133.179688 108.902344 136.042969 107.09375 137.835938 L 104.96875 139.941406 L 106.644531 141.601562 C 106.792969 141.75 106.875 141.945312 106.875 142.15625 C 106.875 142.363281 106.792969 142.5625 106.644531 142.707031 L 97.148438 152.117188 C 96.839844 152.421875 96.339844 152.421875 96.03125 152.117188 C 95.878906 151.964844 95.800781 151.761719 95.800781 151.5625 C 95.800781 151.363281 95.878906 151.160156 96.03125 151.011719 L 104.96875 142.15625 L 103.847656 141.050781 L 88.210938 156.546875 L 82.628906 151.011719 L 98.265625 135.515625 C 97.957031 135.210938 97.957031 134.859375 98.265625 134.550781 C 98.574219 134.246094 99.070312 134.695312 99.378906 134.695312 L 99.382812 134.695312 L 101.507812 132.449219 C 103.382812 130.589844 106.15625 130.175781 107.695312 131.703125 Z M 107.695312 131.703125 " fill-opacity="1" fill-rule="nonzero"/></g><g fill="#c04e5f" fill-opacity="1"><g transform="translate(110.303551, 159.873402)"><g><path d="M 18.640625 -15.875 C 18.640625 -14.695312 18.28125 -13.6875 17.5625 -12.84375 C 16.851562 -12.007812 15.890625 -11.445312 14.671875 -11.15625 L 14.671875 -11.09375 C 16.148438 -10.851562 17.335938 -10.234375 18.234375 -9.234375 C 19.140625 -8.242188 19.59375 -7.097656 19.59375 -5.796875 C 19.59375 -4.679688 19.289062 -3.679688 18.6875 -2.796875 C 18.09375 -1.921875 17.226562 -1.234375 16.09375 -0.734375 C 14.957031 -0.242188 13.625 0 12.09375 0 L 1.296875 0 L 1.296875 -0.5625 C 2.171875 -0.5625 2.828125 -0.660156 3.265625 -0.859375 C 3.710938 -1.066406 4.019531 -1.390625 4.1875 -1.828125 C 4.351562 -2.265625 4.4375 -2.90625 4.4375 -3.75 L 4.4375 -17.734375 C 4.4375 -18.640625 4.359375 -19.320312 4.203125 -19.78125 C 4.046875 -20.238281 3.742188 -20.5625 3.296875 -20.75 C 2.859375 -20.945312 2.191406 -21.054688 1.296875 -21.078125 L 1.296875 -21.640625 L 10.609375 -21.640625 C 11.867188 -21.640625 13.101562 -21.460938 14.3125 -21.109375 C 15.519531 -20.765625 16.539062 -20.160156 17.375 -19.296875 C 18.21875 -18.441406 18.640625 -17.300781 18.640625 -15.875 Z M 7.84375 -20.375 L 7.84375 -11.96875 C 8.976562 -11.738281 9.847656 -11.625 10.453125 -11.625 C 11.316406 -11.625 12.085938 -11.816406 12.765625 -12.203125 C 13.453125 -12.585938 13.988281 -13.113281 14.375 -13.78125 C 14.769531 -14.445312 14.96875 -15.175781 14.96875 -15.96875 C 14.96875 -17.289062 14.515625 -18.390625 13.609375 -19.265625 C 12.703125 -20.148438 11.492188 -20.59375 9.984375 -20.59375 C 9.273438 -20.59375 8.5625 -20.519531 7.84375 -20.375 Z M 7.84375 -10.484375 L 7.84375 -1.515625 C 8.75 -1.242188 9.617188 -1.109375 10.453125 -1.109375 C 12.035156 -1.109375 13.296875 -1.53125 14.234375 -2.375 C 15.179688 -3.226562 15.65625 -4.347656 15.65625 -5.734375 C 15.65625 -7.203125 15.082031 -8.375 13.9375 -9.25 C 12.789062 -10.132812 11.234375 -10.578125 9.265625 -10.578125 C 8.921875 -10.578125 8.445312 -10.546875 7.84375 -10.484375 Z M 7.84375 -10.484375 "/></g></g></g><g fill="#c04e5f" fill-opacity="1"><g transform="translate(131.314078, 159.873402)"><g><path d="M 8.984375 -14.96875 C 10.222656 -14.96875 11.378906 -14.632812 12.453125 -13.96875 C 13.535156 -13.3125 14.394531 -12.429688 15.03125 -11.328125 C 15.675781 -10.222656 16 -9.039062 16 -7.78125 C 16 -6.3125 15.648438 -4.945312 14.953125 -3.6875 C 14.265625 -2.425781 13.335938 -1.421875 12.171875 -0.671875 C 11.003906 0.0664062 9.757812 0.4375 8.4375 0.4375 C 7.175781 0.4375 6.003906 0.109375 4.921875 -0.546875 C 3.847656 -1.210938 2.992188 -2.101562 2.359375 -3.21875 C 1.734375 -4.34375 1.421875 -5.570312 1.421875 -6.90625 C 1.421875 -8.332031 1.765625 -9.660156 2.453125 -10.890625 C 3.148438 -12.128906 4.082031 -13.117188 5.25 -13.859375 C 6.414062 -14.597656 7.660156 -14.96875 8.984375 -14.96875 Z M 4.25 -8.15625 C 4.25 -6.914062 4.441406 -5.722656 4.828125 -4.578125 C 5.222656 -3.429688 5.785156 -2.488281 6.515625 -1.75 C 7.253906 -1.019531 8.140625 -0.65625 9.171875 -0.65625 C 10.367188 -0.65625 11.332031 -1.1875 12.0625 -2.25 C 12.800781 -3.3125 13.171875 -4.710938 13.171875 -6.453125 C 13.171875 -7.835938 12.957031 -9.09375 12.53125 -10.21875 C 12.113281 -11.34375 11.523438 -12.226562 10.765625 -12.875 C 10.015625 -13.53125 9.15625 -13.859375 8.1875 -13.859375 C 6.988281 -13.859375 6.03125 -13.34375 5.3125 -12.3125 C 4.601562 -11.28125 4.25 -9.894531 4.25 -8.15625 Z M 4.25 -8.15625 "/></g></g></g><g fill="#c04e5f" fill-opacity="1"><g transform="translate(148.702104, 159.873402)"><g><path d="M 8.984375 -14.96875 C 10.222656 -14.96875 11.378906 -14.632812 12.453125 -13.96875 C 13.535156 -13.3125 14.394531 -12.429688 15.03125 -11.328125 C 15.675781 -10.222656 16 -9.039062 16 -7.78125 C 16 -6.3125 15.648438 -4.945312 14.953125 -3.6875 C 14.265625 -2.425781 13.335938 -1.421875 12.171875 -0.671875 C 11.003906 0.0664062 9.757812 0.4375 8.4375 0.4375 C 7.175781 0.4375 6.003906 0.109375 4.921875 -0.546875 C 3.847656 -1.210938 2.992188 -2.101562 2.359375 -3.21875 C 1.734375 -4.34375 1.421875 -5.570312 1.421875 -6.90625 C 1.421875 -8.332031 1.765625 -9.660156 2.453125 -10.890625 C 3.148438 -12.128906 4.082031 -13.117188 5.25 -13.859375 C 6.414062 -14.597656 7.660156 -14.96875 8.984375 -14.96875 Z M 4.25 -8.15625 C 4.25 -6.914062 4.441406 -5.722656 4.828125 -4.578125 C 5.222656 -3.429688 5.785156 -2.488281 6.515625 -1.75 C 7.253906 -1.019531 8.140625 -0.65625 9.171875 -0.65625 C 10.367188 -0.65625 11.332031 -1.1875 12.0625 -2.25 C 12.800781 -3.3125 13.171875 -4.710938 13.171875 -6.453125 C 13.171875 -7.835938 12.957031 -9.09375 12.53125 -10.21875 C 12.113281 -11.34375 11.523438 -12.226562 10.765625 -12.875 C 10.015625 -13.53125 9.15625 -13.859375 8.1875 -13.859375 C 6.988281 -13.859375 6.03125 -13.34375 5.3125 -12.3125 C 4.601562 -11.28125 4.25 -9.894531 4.25 -8.15625 Z M 4.25 -8.15625 "/></g></g></g><g fill="#c04e5f" fill-opacity="1"><g transform="translate(166.09013, 159.873402)"><g><path d="M 5.796875 -22.578125 L 5.796875 -8.1875 L 10.296875 -12.46875 C 10.679688 -12.8125 10.875 -13.117188 10.875 -13.390625 C 10.875 -13.578125 10.769531 -13.734375 10.5625 -13.859375 C 10.363281 -13.984375 10.078125 -14.046875 9.703125 -14.046875 L 9.703125 -14.609375 L 16.15625 -14.609375 L 16.15625 -14.046875 L 15.9375 -14.046875 C 14.945312 -14.046875 14.117188 -13.875 13.453125 -13.53125 C 12.796875 -13.1875 12.039062 -12.601562 11.1875 -11.78125 L 8.25 -9.015625 L 12.1875 -3.90625 C 12.925781 -2.957031 13.539062 -2.25 14.03125 -1.78125 C 14.53125 -1.3125 14.988281 -0.988281 15.40625 -0.8125 C 15.820312 -0.644531 16.296875 -0.5625 16.828125 -0.5625 L 16.828125 0 L 9.796875 0 L 9.796875 -0.5625 C 10.460938 -0.601562 10.796875 -0.804688 10.796875 -1.171875 C 10.796875 -1.523438 10.585938 -1.941406 10.171875 -2.421875 L 5.859375 -8.03125 L 5.796875 -8.03125 L 5.796875 -3.34375 C 5.796875 -2.5625 5.878906 -1.96875 6.046875 -1.5625 C 6.210938 -1.164062 6.460938 -0.898438 6.796875 -0.765625 C 7.140625 -0.628906 7.625 -0.5625 8.25 -0.5625 L 8.25 0 L 0.8125 0 L 0.8125 -0.5625 C 1.425781 -0.5625 1.898438 -0.628906 2.234375 -0.765625 C 2.566406 -0.898438 2.8125 -1.160156 2.96875 -1.546875 C 3.132812 -1.941406 3.21875 -2.539062 3.21875 -3.34375 L 3.21875 -18.390625 C 3.21875 -19.128906 3.097656 -19.65625 2.859375 -19.96875 C 2.628906 -20.28125 2.234375 -20.4375 1.671875 -20.4375 C 1.566406 -20.4375 1.453125 -20.425781 1.328125 -20.40625 C 1.203125 -20.382812 1.097656 -20.351562 1.015625 -20.3125 L 0.8125 -20.859375 L 5.265625 -22.578125 Z M 5.796875 -22.578125 "/></g></g></g><g fill="#c04e5f" fill-opacity="1"><g transform="translate(183.478156, 159.873402)"><g/></g></g><g fill="#c04e5f" fill-opacity="1"><g transform="translate(191.353167, 159.873402)"><g><path d="M 11.0625 -21.078125 C 10.175781 -21.078125 9.5 -20.992188 9.03125 -20.828125 C 8.570312 -20.671875 8.25 -20.390625 8.0625 -19.984375 C 7.875 -19.578125 7.78125 -18.984375 7.78125 -18.203125 L 7.78125 -3.15625 C 7.78125 -2.4375 7.894531 -1.890625 8.125 -1.515625 C 8.351562 -1.148438 8.695312 -0.90625 9.15625 -0.78125 C 9.625 -0.65625 10.257812 -0.582031 11.0625 -0.5625 L 11.0625 0 L 1.109375 0 L 1.109375 -0.5625 C 1.941406 -0.582031 2.582031 -0.65625 3.03125 -0.78125 C 3.488281 -0.90625 3.828125 -1.148438 4.046875 -1.515625 C 4.265625 -1.890625 4.375 -2.445312 4.375 -3.1875 L 4.375 -18.203125 C 4.375 -18.984375 4.273438 -19.570312 4.078125 -19.96875 C 3.878906 -20.363281 3.550781 -20.640625 3.09375 -20.796875 C 2.644531 -20.960938 1.984375 -21.054688 1.109375 -21.078125 L 1.109375 -21.640625 L 11.0625 -21.640625 Z M 11.0625 -21.078125 "/></g></g></g><g fill="#c04e5f" fill-opacity="1"><g transform="translate(203.480687, 159.873402)"><g><path d="M 5.640625 -11.875 C 6.734375 -13.050781 7.625 -13.859375 8.3125 -14.296875 C 9.007812 -14.742188 9.773438 -14.96875 10.609375 -14.96875 C 11.535156 -14.96875 12.28125 -14.71875 12.84375 -14.21875 C 13.414062 -13.726562 13.828125 -13.125 14.078125 -12.40625 C 14.328125 -11.695312 14.453125 -10.992188 14.453125 -10.296875 L 14.453125 -3.34375 C 14.453125 -2.269531 14.617188 -1.546875 14.953125 -1.171875 C 15.296875 -0.804688 15.875 -0.601562 16.6875 -0.5625 L 16.6875 0 L 9.328125 0 L 9.328125 -0.5625 C 9.992188 -0.5625 10.503906 -0.632812 10.859375 -0.78125 C 11.222656 -0.9375 11.484375 -1.207031 11.640625 -1.59375 C 11.796875 -1.976562 11.875 -2.5625 11.875 -3.34375 L 11.875 -10.421875 C 11.875 -11.097656 11.648438 -11.710938 11.203125 -12.265625 C 10.765625 -12.828125 10.160156 -13.109375 9.390625 -13.109375 C 8.734375 -13.109375 8.109375 -12.929688 7.515625 -12.578125 C 6.929688 -12.234375 6.304688 -11.707031 5.640625 -11 L 5.640625 -3.34375 C 5.640625 -2.25 5.816406 -1.515625 6.171875 -1.140625 C 6.523438 -0.773438 7.144531 -0.582031 8.03125 -0.5625 L 8.03125 0 L 0.78125 0 L 0.78125 -0.5625 C 1.4375 -0.625 1.921875 -0.738281 2.234375 -0.90625 C 2.546875 -1.082031 2.757812 -1.347656 2.875 -1.703125 C 3 -2.054688 3.0625 -2.570312 3.0625 -3.25 L 3.0625 -11.09375 C 3.0625 -11.570312 2.953125 -11.988281 2.734375 -12.34375 C 2.523438 -12.707031 2.191406 -12.890625 1.734375 -12.890625 C 1.523438 -12.890625 1.328125 -12.847656 1.140625 -12.765625 C 0.960938 -12.691406 0.84375 -12.644531 0.78125 -12.625 L 0.5625 -13.234375 L 5.109375 -14.96875 L 5.640625 -14.96875 Z M 5.640625 -11.875 "/></g></g></g><g fill="#c04e5f" fill-opacity="1"><g transform="translate(220.868713, 159.873402)"><g><path d="M 8.921875 -22.578125 C 9.609375 -22.578125 10.257812 -22.457031 10.875 -22.21875 C 11.5 -21.976562 11.992188 -21.648438 12.359375 -21.234375 C 12.734375 -20.828125 12.921875 -20.40625 12.921875 -19.96875 C 12.921875 -19.65625 12.789062 -19.367188 12.53125 -19.109375 C 12.28125 -18.847656 11.988281 -18.71875 11.65625 -18.71875 C 11.300781 -18.71875 11.007812 -18.820312 10.78125 -19.03125 C 10.5625 -19.238281 10.304688 -19.550781 10.015625 -19.96875 C 9.679688 -20.476562 9.359375 -20.859375 9.046875 -21.109375 C 8.742188 -21.359375 8.332031 -21.484375 7.8125 -21.484375 C 7.207031 -21.484375 6.707031 -21.25 6.3125 -20.78125 C 5.925781 -20.320312 5.734375 -19.460938 5.734375 -18.203125 L 5.734375 -14.609375 L 8.6875 -14.609375 L 8.6875 -13.640625 L 5.734375 -13.640625 L 5.734375 -3.34375 C 5.734375 -2.519531 5.816406 -1.910156 5.984375 -1.515625 C 6.148438 -1.128906 6.410156 -0.875 6.765625 -0.75 C 7.128906 -0.625 7.644531 -0.5625 8.3125 -0.5625 L 8.3125 0 L 0.75 0 L 0.75 -0.5625 C 1.363281 -0.5625 1.832031 -0.628906 2.15625 -0.765625 C 2.476562 -0.898438 2.722656 -1.160156 2.890625 -1.546875 C 3.066406 -1.941406 3.15625 -2.539062 3.15625 -3.34375 L 3.15625 -13.640625 L 1.109375 -13.640625 L 1.109375 -14.609375 L 3.15625 -14.609375 L 3.15625 -16.125 C 3.15625 -17.425781 3.429688 -18.566406 3.984375 -19.546875 C 4.535156 -20.523438 5.253906 -21.273438 6.140625 -21.796875 C 7.023438 -22.316406 7.953125 -22.578125 8.921875 -22.578125 Z M 8.921875 -22.578125 "/></g></g></g><g fill="#c04e5f" fill-opacity="1"><g transform="translate(231.35823, 159.873402)"><g><path d="M 8.984375 -14.96875 C 10.222656 -14.96875 11.378906 -14.632812 12.453125 -13.96875 C 13.535156 -13.3125 14.394531 -12.429688 15.03125 -11.328125 C 15.675781 -10.222656 16 -9.039062 16 -7.78125 C 16 -6.3125 15.648438 -4.945312 14.953125 -3.6875 C 14.265625 -2.425781 13.335938 -1.421875 12.171875 -0.671875 C 11.003906 0.0664062 9.757812 0.4375 8.4375 0.4375 C 7.175781 0.4375 6.003906 0.109375 4.921875 -0.546875 C 3.847656 -1.210938 2.992188 -2.101562 2.359375 -3.21875 C 1.734375 -4.34375 1.421875 -5.570312 1.421875 -6.90625 C 1.421875 -8.332031 1.765625 -9.660156 2.453125 -10.890625 C 3.148438 -12.128906 4.082031 -13.117188 5.25 -13.859375 C 6.414062 -14.597656 7.660156 -14.96875 8.984375 -14.96875 Z M 4.25 -8.15625 C 4.25 -6.914062 4.441406 -5.722656 4.828125 -4.578125 C 5.222656 -3.429688 5.785156 -2.488281 6.515625 -1.75 C 7.253906 -1.019531 8.140625 -0.65625 9.171875 -0.65625 C 10.367188 -0.65625 11.332031 -1.1875 12.0625 -2.25 C 12.800781 -3.3125 13.171875 -4.710938 13.171875 -6.453125 C 13.171875 -7.835938 12.957031 -9.09375 12.53125 -10.21875 C 12.113281 -11.34375 11.523438 -12.226562 10.765625 -12.875 C 10.015625 -13.53125 9.15625 -13.859375 8.1875 -13.859375 C 6.988281 -13.859375 6.03125 -13.34375 5.3125 -12.3125 C 4.601562 -11.28125 4.25 -9.894531 4.25 -8.15625 Z M 4.25 -8.15625 "/></g></g></g></svg>